<svg id="Layer_1" data-name="Layer 1" xmlns="http://www.w3.org/2000/svg" viewBox="0 0 111.41 48"><defs><style>.cls-1{fill:#fff;}</style></defs><path class="cls-1" d="M357.14,286.87v0a4.35,4.35,0,0,0,.73,2.38,8.68,8.68,0,0,0,3.7,2.6,50.2,50.2,0,0,0,5.23,2c8.87,2.91,12.65,7,12.65,13.8a13.5,13.5,0,0,1-7.71,12.13,16.26,16.26,0,0,1-7.73,1.85H348.1v-8.59H364a7.56,7.56,0,0,0,4.82-1.45,4.71,4.71,0,0,0,1.77-3.8c0-3.25-3.35-4.53-6-5.56-.72-.28-1.38-.51-2-.72a46.31,46.31,0,0,1-6.05-2.47,23.15,23.15,0,0,1-2.64-1.54,12.37,12.37,0,0,1-4.19-4.41,13,13,0,0,1-1.31-6.13,13.27,13.27,0,0,1,2.38-7.52,13,13,0,0,1,5-4.15,16.23,16.23,0,0,1,6.9-1.61l.69,0h16.34v8.38H363.33a10.16,10.16,0,0,0-2.19.22A4.91,4.91,0,0,0,357.14,286.87Z" transform="translate(-310.28 -273.68)"/><path class="cls-1" d="M418.55,284.76c-4.32-7.25-12.17-11.08-22.69-11.08H383.69v8.39l12.59,0c10.31,0,16.23,5.87,16.23,15.59,0,9.44-6.1,15.44-16.32,15.44a3.48,3.48,0,0,1-3.5-3.51V297.16a7.3,7.3,0,0,0-6.81-7.26h-2.19v24.75a7.06,7.06,0,0,0,7.06,7h5.11a31.26,31.26,0,0,0,13.63-2.88c7.86-3.86,12.19-11.6,12.19-21.12A25.33,25.33,0,0,0,418.55,284.76Z" transform="translate(-310.28 -273.68)"/><path class="cls-1" d="M333.58,273.72h0Z" transform="translate(-310.28 -273.68)"/><path class="cls-1" d="M321.29,289.73a13.64,13.64,0,0,1,12.06-7.44c.29,0,.57,0,.86,0h2.65a7.3,7.3,0,0,0,7.1-5.72,7.93,7.93,0,0,0,.15-1.17c0-.12,0-.25,0-.38v-1.32H332.55a22.33,22.33,0,0,0-11,3.12c-7.08,4.27-11.3,12.08-11.3,20.87a24.71,24.71,0,0,0,3.06,12.17,22.69,22.69,0,0,0,19.22,11.79h11.56v-8.59h-2.63c-.93,0-1.88,0-2.88.07-4.38.13-8.89.27-12.36-2-4.25-2.75-6.78-7.77-6.78-13.43a19.09,19.09,0,0,1,.46-4.3A14.38,14.38,0,0,1,321.29,289.73Z" transform="translate(-310.28 -273.68)"/></svg>